<?xml version="1.0" encoding="utf-8"?>
<!-- Generator: Adobe Illustrator 16.0.0, SVG Export Plug-In . SVG Version: 6.00 Build 0)  -->
<!DOCTYPE svg PUBLIC "-//W3C//DTD SVG 1.1//EN" "http://www.w3.org/Graphics/SVG/1.1/DTD/svg11.dtd">
<svg version="1.1" id="Layer_1" xmlns="http://www.w3.org/2000/svg" xmlns:xlink="http://www.w3.org/1999/xlink" x="0px" y="0px"
	 width="1200px" height="1200px" viewBox="0 0 1200 1200" enable-background="new 0 0 1200 1200" xml:space="preserve">
<g>
	
		<linearGradient id="SVGID_1_" gradientUnits="userSpaceOnUse" x1="-469.1118" y1="472.5278" x2="-469.1118" y2="476.8464" gradientTransform="matrix(255.7156 0 0 255.7156 120559.1406 -120760.5938)">
		<stop  offset="0" style="stop-color:#FDFDFD"/>
		<stop  offset="1" style="stop-color:#CBCBCB"/>
	</linearGradient>
	<circle fill="url(#SVGID_1_)" cx="600" cy="600" r="575"/>
	
		<linearGradient id="SVGID_2_" gradientUnits="userSpaceOnUse" x1="-468.9839" y1="472.7212" x2="-468.9839" y2="477.0411" gradientTransform="matrix(233.8133 0 0 233.8133 110254.0938 -110411.5938)">
		<stop  offset="0" style="stop-color:#B2E198"/>
		<stop  offset="1" style="stop-color:#04A171"/>
	</linearGradient>
	<circle fill="url(#SVGID_2_)" cx="599.361" cy="600.64" r="525.752"/>
	<g transform="translate(45.511111, 52.622222)">
		<path fill="#F2F8F6" d="M430.605,466.864c-6.188,9.534-12.165,19.111-17.934,28.7c-6.311-17.369-11.851-34.475-16.57-51.164
			c16.776-2.402,34.607-4.3,53.402-5.613C443.12,447.935,436.813,457.297,430.605,466.864L430.605,466.864L430.605,466.864z
			 M894.435,500.481c-18.582-17.84-45.152-34.186-78.96-48.584c-67.124-28.587-157.033-47.106-253.169-52.15
			c-11.595-0.608-22.914-1.023-33.858-1.245c73.396-87.607,144.285-134.222,185.563-135.79c8.744-0.334,16.084,1.396,21.833,5.132
			c19.323,12.556,24.682,51.502,14.339,104.182c-2.042,10.396,4.733,20.483,15.13,22.525c10.398,2.034,20.482-4.732,22.529-15.132
			c17.777-90.561-7.093-128.157-31.086-143.752c-12.521-8.14-27.398-11.941-44.197-11.304
			c-63.507,2.413-152.478,70.123-233.663,174.507c-32.144,1.109-63.13,3.882-92.118,8.212c-3.182-14.773-5.639-29.093-7.306-42.82
			c-7.282-60.009,1.649-102.607,23.887-113.949c3.572-1.82,7.477-2.87,11.937-3.204c19.868-1.496,47.905,11.856,78.892,37.591
			c8.149,6.768,20.249,5.65,27.021-2.503c6.77-8.153,5.648-20.25-2.503-27.021c-39.799-33.05-75.554-48.646-106.281-46.335
			c-9.502,0.711-18.415,3.165-26.498,7.286c-20.657,10.534-34.774,30.705-41.957,59.955c-6.153,25.046-7.026,56.271-2.591,92.803
			c1.752,14.447,4.314,29.482,7.62,44.963c-22.664,4.776-43.667,10.595-62.495,17.398c-82.37,29.754-101.387,68.975-102.836,96.637
			c-1.383,26.426,12.143,65.749,84.439,103.035c9.418,4.857,20.99,1.155,25.848-8.261c4.857-9.42,1.159-20.993-8.259-25.846
			c-41.59-21.449-64.808-45.842-63.703-66.922c1.555-29.702,51.34-61.14,136.147-78.854c7.855,28.371,17.945,57.838,30.044,87.717
			c-30.481,57.216-52.721,113.607-64.254,163.769c-8.241,35.843-10.65,66.963-7.159,92.492
			c4.076,29.819,16.004,51.349,35.446,63.987c9.914,6.443,23.274,11.48,40.826,11.48c25.448,0,59.699-10.603,104.979-42.896
			c8.628-6.152,10.635-18.134,4.48-26.764c-6.151-8.63-18.134-10.633-26.761-4.479c-44.636,31.835-82.994,43.229-102.61,30.482
			c-20.92-13.598-25.332-56.855-11.801-115.706c8.972-39.024,24.983-82.284,46.696-126.865c4.712,10.093,9.633,20.188,14.763,30.272
			c43.701,85.837,97.195,160.52,150.63,210.292c26.912,25.063,52.647,42.71,76.504,52.451c14.467,5.911,28.056,8.866,40.672,8.866
			c11.679-0.005,22.525-2.534,32.457-7.599c19.925-10.158,33.775-29.323,41.182-56.961c6.337-23.667,7.76-53.188,4.233-87.748
			c-6.939-67.954-32.618-150.831-72.302-233.366c-4.591-9.552-16.062-13.568-25.609-8.979c-9.553,4.594-13.57,16.058-8.978,25.608
			c37.81,78.632,62.216,156.987,68.71,220.632c5.714,55.974-3.509,95.832-24.673,106.623c-22.223,11.336-61.862-6.465-106.04-47.61
			c-50.236-46.786-100.873-117.683-142.588-199.62c-9.537-18.73-18.323-37.506-26.315-56.139
			c9.921-17.738,20.65-35.538,32.125-53.226c11.7-18.033,23.546-35.027,35.424-50.966c3.148-0.044,6.317-0.077,9.51-0.088
			c16.48-0.051,34.142,0.408,52.563,1.374c91.763,4.813,177.047,22.262,240.144,49.131c55.499,23.636,87.854,52.635,86.545,77.577
			c-1.106,21.173-26.834,43.062-70.585,60.044c-9.882,3.839-14.778,14.959-10.944,24.836c2.951,7.594,10.207,12.248,17.894,12.248
			c2.31,0,4.659-0.421,6.938-1.309c76.022-29.518,93.638-67.31,95.025-93.816C926.521,543.617,916.134,521.311,894.435,500.481
			L894.435,500.481L894.435,500.481z"/>
		<path fill="#F1F8F3" d="M514.888,552.474c0,23.176,18.771,41.959,41.924,41.959c23.157,0,41.928-18.783,41.928-41.959
			s-18.771-41.963-41.928-41.963C533.659,510.51,514.888,529.298,514.888,552.474"/>
	</g>
</g>
</svg>
