<?xml version="1.0" encoding="UTF-8"?>
<svg width="88px" height="78px" viewBox="0 0 88 78" version="1.1" xmlns="http://www.w3.org/2000/svg" xmlns:xlink="http://www.w3.org/1999/xlink">
    <!-- Generator: Sketch 53 (72520) - https://sketchapp.com -->
    <title>blue copy 2</title>
    <desc>Created with Sketch.</desc>
    <g id="Palette" stroke="none" stroke-width="1" fill="none" fill-rule="evenodd">
        <g id="blue-copy-2" transform="translate(1.000000, 1.000000)">
            <path d="M22.0423673,21.5466617 L22.0423673,32.4709919 L33.1039965,32.4595708 C33.2444678,32.4595708 33.3726397,32.4557637 33.5001644,32.4475151 C36.4086323,32.2552591 38.6820663,29.8637971 38.6820663,27.0034335 C38.6820663,23.9939604 36.1853023,21.5466617 33.1150011,21.5466617 L22.0423673,21.5466617 Z M11.1024368,75.5039827 C5.06087639,75.5039827 0.162506331,70.7032925 0.162506331,64.7807916 L0.162506331,44.3439122 C0.123019008,43.9733593 0.101657013,43.5964613 0.101657013,43.2151218 C0.10100968,42.8268027 0.121724341,42.4435597 0.162506331,42.0653927 L0.162506331,10.8234706 C0.162506331,4.90096968 5.06087639,0.099645004 11.1024368,0.099645004 L33.1150011,0.099645004 C48.2496505,0.099645004 60.5625747,12.1686283 60.5625747,27.0034335 C60.5625747,41.1079196 49.3235762,52.8977192 34.976084,53.8444057 C34.3662961,53.8856487 33.7377356,53.9065875 33.1150011,53.9065875 L22.0423673,53.9173741 L22.0423673,64.7807916 C22.0423673,70.7032925 17.1446446,75.5039827 11.1024368,75.5039827 L11.1024368,75.5039827 Z" id="Fill-1" fill="#A2DDEF"/>
            <path d="M22.0423673,21.5466617 L22.0423673,32.4709919 L33.1039965,32.4595708 C33.2444678,32.4595708 33.3726397,32.4557637 33.5001644,32.4475151 C36.4086323,32.2552591 38.6820663,29.8637971 38.6820663,27.0034335 C38.6820663,23.9939604 36.1853023,21.5466617 33.1150011,21.5466617 L22.0423673,21.5466617 Z M11.1024368,75.5039827 C5.06087639,75.5039827 0.162506331,70.7032925 0.162506331,64.7807916 L0.162506331,44.3439122 C0.123019008,43.9733593 0.101657013,43.5964613 0.101657013,43.2151218 C0.10100968,42.8268027 0.121724341,42.4435597 0.162506331,42.0653927 L0.162506331,10.8234706 C0.162506331,4.90096968 5.06087639,0.099645004 11.1024368,0.099645004 L33.1150011,0.099645004 C48.2496505,0.099645004 60.5625747,12.1686283 60.5625747,27.0034335 C60.5625747,41.1079196 49.3235762,52.8977192 34.976084,53.8444057 C34.3662961,53.8856487 33.7377356,53.9065875 33.1150011,53.9065875 L22.0423673,53.9173741 L22.0423673,64.7807916 C22.0423673,70.7032925 17.1446446,75.5039827 11.1024368,75.5039827 Z" id="Stroke-3" stroke="#368BD6" stroke-width="1.93776283"/>
            <path d="M11.1025016,64.7806012 L11.1025016,10.8232803 L33.1150659,10.8232803 C42.2314588,10.8232803 49.6220616,18.0674621 49.6220616,27.0032431 C49.6220616,35.5684713 42.832184,42.5791541 34.2414256,43.1457701 C33.8685617,43.1705159 33.4937558,43.183206 33.1150659,43.183206 L11.0416522,43.2047793" id="Stroke-5" stroke="#368BD6" stroke-width="1.93776283" stroke-linecap="round"/>
            <path d="M20.1171338,4.67330808 C21.794374,7.01908545 22.4384705,9.8654899 21.9309613,12.6846105 C21.4228048,15.5056346 19.8238918,17.9630854 17.4287591,19.6058276 C12.4837811,22.9972747 5.64341151,21.8164547 2.18082641,16.9732524 C0.503586176,14.6274751 -0.140510324,11.7817051 0.367646211,8.9613155 C0.875155413,6.14092589 2.47406833,3.68284055 4.86984838,2.04073294 C9.81482643,-1.35071418 16.6545487,-0.169894143 20.1171338,4.67330808 Z M49.7121056,75.4978279 C46.2644092,75.4978279 42.8723834,73.905212 40.7433046,70.9274643 L25.2817519,49.2996127 C21.8146355,44.4494309 23.0154385,37.7623474 27.9630059,34.3645552 C32.9105733,30.964225 39.7328175,32.1418725 43.199934,36.9920543 L58.6614866,58.6199059 C62.1292504,63.4700877 60.9284474,70.1571712 55.98088,73.5549634 C54.0699525,74.8677611 51.8800244,75.4978279 49.7121056,75.4978279 Z" id="Combined-Shape" fill="#368BD6"/>
            <path d="M77.0793438,17.4786733 C76.5940943,17.4786733 76.2166781,17.1110961 76.2166781,16.6384968 C76.2166781,16.1658974 76.5940943,15.7983202 77.0793438,15.7983202 L85.9216678,15.7983202 C86.4069173,15.7983202 86.7843336,16.1658974 86.7843336,16.6384968 C86.7843336,17.1110961 86.4069173,17.4786733 85.9216678,17.4786733 L77.0793438,17.4786733 Z M77.0793438,2.04042882 C76.5940943,2.04042882 76.2166781,1.67285157 76.3245113,1.09523017 C76.3245113,0.622630853 76.7019275,0.255053602 77.187177,0.255053602 L80.6917567,0.255053602 L85.9755844,0.255053602 C86.1373342,0.255053602 86.2990841,0.307564638 86.4608339,0.41258671 C86.6765003,0.570119817 86.8382502,0.832674996 86.8382502,1.14774121 L86.8382502,4.92853579 C86.8382502,6.81893307 85.2207519,8.39426415 83.2797539,8.39426415 C81.8779221,8.39426415 80.6917567,7.65910964 80.098674,6.50386686 L77.6185099,8.18422 C77.187177,8.44677518 76.6480109,8.34175311 76.3784279,7.97417586 C76.1088448,7.55408757 76.2166781,7.02897722 76.5940943,6.76642204 L79.7212577,4.66598061 L79.7212577,2.04042882 L77.0793438,2.04042882 Z M85.0050854,4.98104682 L84.9511688,2.04042882 L81.4465892,2.04042882 L81.4465892,4.98104682 C81.4465892,5.92624546 82.2553383,6.713911 83.2258373,6.713911 C84.1963363,6.713911 85.0050854,5.92624546 85.0050854,4.98104682 Z M85.9216678,40.0584187 C86.4069173,40.0584187 86.7843336,40.425996 86.7843336,40.8985953 L86.7843336,44.3118126 L86.7843336,47.777541 C86.7843336,48.2501403 86.4069173,48.6177175 85.9216678,48.6177175 C85.4364183,48.6177175 85.0590021,48.2501403 85.0590021,47.777541 L85.0590021,45.1519892 L77.1332604,45.1519892 C76.6480109,45.1519892 76.2705947,44.7844119 76.2705947,44.3118126 C76.2705947,43.8392133 76.6480109,43.471636 77.1332604,43.471636 L85.0590021,43.471636 L85.0590021,40.8985953 C85.0590021,40.425996 85.4364183,40.0584187 85.9216678,40.0584187 Z M81.5005058,24.7251963 C84.4659193,24.7251963 86.8921668,27.0881929 86.8921668,29.9762998 C86.8921668,32.8644068 84.4659193,35.2274034 81.5005058,35.2274034 C78.5350923,35.2274034 76.1088448,32.8644068 76.1088448,29.9762998 C76.1088448,27.0881929 78.5350923,24.7251963 81.5005058,24.7251963 Z M81.5005058,33.4945392 C83.4954204,33.4945392 85.1129187,31.9192082 85.1129187,29.9762998 C85.1129187,28.0333915 83.4954204,26.4580604 81.5005058,26.4580604 C79.5055913,26.4580604 77.888093,28.0333915 77.888093,29.9762998 C77.888093,31.9192082 79.5055913,33.4945392 81.5005058,33.4945392 Z M86.5147505,57.5445936 C86.6765003,57.7021267 86.730417,57.9121709 86.730417,58.122215 C86.730417,58.3847702 86.6765003,58.5423033 86.5147505,58.6998364 C86.2990841,58.8573695 86.0834176,58.9098805 85.9216678,58.9098805 L77.0254272,58.9098805 C76.7558442,58.9098805 76.5940943,58.9098805 76.4323445,58.6998364 C76.2705947,58.4897923 76.2166781,58.3322592 76.2166781,58.122215 C76.2166781,57.8596598 76.2705947,57.7021267 76.4323445,57.5445936 C76.6480109,57.3870605 76.8097608,57.3345495 77.0254272,57.3345495 L85.9216678,57.3345495 C86.1912509,57.3345495 86.3530007,57.3870605 86.5147505,57.5445936 Z M86.730417,67.1541132 C86.730417,67.4691794 86.5686671,67.7317346 86.3530007,67.8892677 L81.3926726,71.0924408 L86.3530007,74.295614 C86.6765003,74.4531471 86.730417,74.7682133 86.730417,75.0307685 L86.730417,75.1357906 C86.730417,75.3983458 86.730417,75.5558789 86.5147505,75.713412 C86.2990841,75.8709451 86.1373342,75.9234561 85.9216678,75.9234561 L77.0793438,75.9234561 C76.8097608,75.9234561 76.6480109,75.9234561 76.4862611,75.713412 C76.3245113,75.5033678 76.2705947,75.3983458 76.2705947,75.1357906 C76.2705947,74.8732354 76.3245113,74.7157023 76.4862611,74.5581692 C76.7019275,74.4006361 76.917594,74.3481251 77.0793438,74.3481251 L83.6032536,74.3481251 L79.6673411,71.7225733 C79.4516746,71.5650402 79.2899248,71.302485 79.2899248,71.0399298 C79.2899248,70.7773746 79.397758,70.5673305 79.6134245,70.3572863 L83.549337,67.7842456 L77.0254272,67.7842456 C76.7558442,67.7842456 76.5940943,67.7842456 76.4323445,67.5742014 C76.2705947,67.3641573 76.2166781,67.2591352 76.2166781,66.9965801 C76.2166781,66.7340249 76.2705947,66.5764918 76.4323445,66.4189587 C76.6480109,66.2614256 76.8636774,66.2614256 77.0254272,66.2614256 L85.9216678,66.2614256 C86.1912509,66.2614256 86.3530007,66.3139366 86.5147505,66.4714697 C86.6765003,66.6290028 86.730417,66.8390469 86.730417,67.0490911 L86.730417,67.1541132 Z M80.9074231,51.8208907 C81.0691729,51.8208907 81.2309228,51.8734018 81.3926726,52.0309349 C81.5005058,52.1359569 81.608339,52.29349 81.608339,52.5035342 C81.608339,52.6610673 81.5544224,52.8186004 81.3926726,52.9761335 C81.2848394,53.0811556 81.1230895,53.1861777 80.9074231,53.1861777 L80.6378401,53.1861777 C80.4760902,53.1861777 80.3143404,53.1336666 80.1525906,52.9761335 C80.0447573,52.8711114 79.9369241,52.7135783 79.9369241,52.5035342 C79.9369241,52.29349 79.9908407,52.1359569 80.1525906,52.0309349 C80.2604238,51.9259128 80.4221736,51.8208907 80.6378401,51.8208907 L80.9074231,51.8208907 Z" id="Combined-Shape" fill="#2E2F32"/>
        </g>
    </g>
</svg>